<?xml version="1.0" standalone="no"?>
<!DOCTYPE svg PUBLIC "-//W3C//DTD SVG 20010904//EN"
 "http://www.w3.org/TR/2001/REC-SVG-20010904/DTD/svg10.dtd">
<svg version="1.0" xmlns="http://www.w3.org/2000/svg"
 width="1280.000000pt" height="1136.000000pt" viewBox="0 0 1280.000000 1136.000000"
 preserveAspectRatio="xMidYMid meet">
<metadata>
Created by potrace 1.15, written by Peter Selinger 2001-2017
</metadata>
<g transform="translate(0.000000,1136.000000) scale(0.100000,-0.100000)"
fill="#000000" stroke="none">
<path d="M9990 10314 c-789 -575 -1959 -1427 -2600 -1893 -641 -466 -1431
-1042 -1757 -1279 l-592 -431 -93 43 c-229 107 -545 201 -843 251 -356 59
-815 58 -1177 -5 -604 -104 -1179 -369 -1656 -764 -142 -117 -372 -352 -492
-501 -419 -523 -669 -1118 -756 -1800 -28 -213 -25 -634 4 -855 153 -1137 818
-2107 1822 -2655 637 -348 1398 -489 2125 -395 1511 196 2723 1334 3014 2830
45 232 54 335 57 659 l3 314 413 294 c227 162 419 298 427 302 11 7 -21 72
-148 300 -89 160 -159 295 -156 300 4 7 466 335 636 451 4 3 -21 178 -57 390
-35 211 -64 388 -64 392 0 4 117 96 260 203 l260 195 482 -211 c266 -116 501
-219 523 -228 l41 -18 194 162 c179 149 195 165 192 191 -2 16 -30 202 -63
413 -32 211 -59 390 -59 397 0 8 117 102 260 209 l260 195 261 -131 261 -130
164 98 c161 96 164 98 159 128 -3 16 -16 136 -30 265 -14 129 -27 247 -30 263
-4 25 11 40 192 191 l197 164 392 -196 392 -196 187 124 c103 69 192 128 196
131 9 5 -245 2206 -255 2216 -3 3 -92 -57 -198 -134 -1618 -1171 -5670 -4093
-5675 -4093 -5 1 -65 101 -135 223 -117 206 -125 223 -110 238 10 9 1304 949
2877 2090 1573 1140 2900 2102 2949 2138 74 54 86 66 70 72 -15 6 -460 71
-854 124 -33 4 -110 -50 -1470 -1041z m-6089 -3808 c249 -34 503 -98 719 -183
253 -99 565 -279 780 -449 140 -111 415 -394 521 -536 329 -441 523 -924 591
-1468 17 -137 17 -553 0 -690 -63 -511 -249 -991 -542 -1400 -273 -382 -662
-716 -1079 -929 -328 -167 -654 -264 -1046 -312 -129 -16 -511 -16 -640 0
-593 72 -1109 286 -1560 646 -128 102 -358 332 -460 460 -361 452 -572 962
-646 1560 -18 147 -16 522 5 680 46 359 133 650 291 970 147 299 325 546 569
791 521 522 1172 818 1931 878 102 8 454 -3 566 -18z"/>
<path d="M3264 6130 c-542 -43 -1064 -250 -1484 -588 -475 -384 -818 -944
-940 -1537 -52 -254 -69 -607 -41 -840 114 -924 662 -1700 1486 -2105 188 -92
308 -138 488 -185 820 -215 1668 -42 2337 478 125 98 341 310 434 427 306 385
493 814 567 1300 26 173 32 532 11 690 -59 435 -201 821 -427 1160 -122 183
-194 270 -354 430 -422 419 -948 677 -1540 755 -141 18 -400 26 -537 15z
m-371 -2095 c462 -69 812 -421 883 -888 54 -354 -96 -730 -384 -958 -176 -141
-367 -213 -593 -226 -293 -16 -558 83 -772 286 -214 205 -327 465 -327 756 0
320 143 614 398 816 158 126 312 188 552 223 59 8 152 5 243 -9z"/>
</g>
</svg>
